<mxfile host="app.diagrams.net" modified="2024-02-22T22:34:03.504Z" agent="Mozilla/5.0 (Windows NT 10.0; Win64; x64) AppleWebKit/537.36 (KHTML, like Gecko) Chrome/121.0.0.0 Safari/537.36" etag="6C1wAQCH8QP0Rn-yntfR" version="23.1.5" type="google">
  <diagram name="Página-1" id="xDE5nTpLmQxpRUiFiQ65">
    <mxGraphModel grid="1" page="1" gridSize="10" guides="1" tooltips="1" connect="1" arrows="1" fold="1" pageScale="1" pageWidth="827" pageHeight="1169" math="0" shadow="0">
      <root>
        <mxCell id="0" />
        <mxCell id="1" parent="0" />
        <mxCell id="wbrfr77zBKCYphScyeNv-21" style="edgeStyle=orthogonalEdgeStyle;rounded=0;orthogonalLoop=1;jettySize=auto;html=1;endArrow=none;endFill=0;exitX=1;exitY=0.75;exitDx=0;exitDy=0;" edge="1" parent="1" source="wbrfr77zBKCYphScyeNv-1" target="wbrfr77zBKCYphScyeNv-20">
          <mxGeometry relative="1" as="geometry" />
        </mxCell>
        <mxCell id="wbrfr77zBKCYphScyeNv-22" value="N" style="edgeLabel;html=1;align=center;verticalAlign=middle;resizable=0;points=[];" connectable="0" vertex="1" parent="wbrfr77zBKCYphScyeNv-21">
          <mxGeometry x="0.06" relative="1" as="geometry">
            <mxPoint x="-1" as="offset" />
          </mxGeometry>
        </mxCell>
        <mxCell id="wbrfr77zBKCYphScyeNv-44" style="edgeStyle=orthogonalEdgeStyle;rounded=0;orthogonalLoop=1;jettySize=auto;html=1;entryX=0.5;entryY=0;entryDx=0;entryDy=0;endArrow=none;endFill=0;" edge="1" parent="1" source="wbrfr77zBKCYphScyeNv-1" target="wbrfr77zBKCYphScyeNv-4">
          <mxGeometry relative="1" as="geometry" />
        </mxCell>
        <mxCell id="wbrfr77zBKCYphScyeNv-49" style="edgeStyle=orthogonalEdgeStyle;rounded=0;orthogonalLoop=1;jettySize=auto;html=1;entryX=0;entryY=0.5;entryDx=0;entryDy=0;exitX=1;exitY=0.25;exitDx=0;exitDy=0;endArrow=none;endFill=0;" edge="1" parent="1" source="wbrfr77zBKCYphScyeNv-1" target="wbrfr77zBKCYphScyeNv-48">
          <mxGeometry relative="1" as="geometry" />
        </mxCell>
        <mxCell id="wbrfr77zBKCYphScyeNv-51" value="1" style="edgeLabel;html=1;align=center;verticalAlign=middle;resizable=0;points=[];" connectable="0" vertex="1" parent="wbrfr77zBKCYphScyeNv-49">
          <mxGeometry x="-0.0095" relative="1" as="geometry">
            <mxPoint as="offset" />
          </mxGeometry>
        </mxCell>
        <mxCell id="wbrfr77zBKCYphScyeNv-1" value="Anjo" style="rounded=0;whiteSpace=wrap;html=1;" vertex="1" parent="1">
          <mxGeometry x="80" y="320" width="120" height="80" as="geometry" />
        </mxCell>
        <mxCell id="wbrfr77zBKCYphScyeNv-25" style="edgeStyle=orthogonalEdgeStyle;rounded=0;orthogonalLoop=1;jettySize=auto;html=1;endArrow=none;endFill=0;" edge="1" parent="1" source="wbrfr77zBKCYphScyeNv-26" target="wbrfr77zBKCYphScyeNv-6">
          <mxGeometry relative="1" as="geometry" />
        </mxCell>
        <mxCell id="wbrfr77zBKCYphScyeNv-30" value="N" style="edgeLabel;html=1;align=center;verticalAlign=middle;resizable=0;points=[];" connectable="0" vertex="1" parent="wbrfr77zBKCYphScyeNv-25">
          <mxGeometry x="0.02" y="-2" relative="1" as="geometry">
            <mxPoint y="-2" as="offset" />
          </mxGeometry>
        </mxCell>
        <mxCell id="wbrfr77zBKCYphScyeNv-43" style="edgeStyle=orthogonalEdgeStyle;rounded=0;orthogonalLoop=1;jettySize=auto;html=1;entryX=0.5;entryY=0;entryDx=0;entryDy=0;endArrow=none;endFill=0;" edge="1" parent="1" source="wbrfr77zBKCYphScyeNv-2" target="wbrfr77zBKCYphScyeNv-10">
          <mxGeometry relative="1" as="geometry" />
        </mxCell>
        <mxCell id="wbrfr77zBKCYphScyeNv-2" value="Mortal" style="rounded=0;whiteSpace=wrap;html=1;" vertex="1" parent="1">
          <mxGeometry x="360" y="320" width="120" height="80" as="geometry" />
        </mxCell>
        <mxCell id="wbrfr77zBKCYphScyeNv-3" value="Cor das asas" style="ellipse;whiteSpace=wrap;html=1;" vertex="1" parent="1">
          <mxGeometry x="80" y="600" width="120" height="80" as="geometry" />
        </mxCell>
        <mxCell id="wbrfr77zBKCYphScyeNv-4" value="&lt;u&gt;ID Anjo&lt;br&gt;&lt;/u&gt;" style="ellipse;whiteSpace=wrap;html=1;" vertex="1" parent="1">
          <mxGeometry x="80" y="440" width="120" height="80" as="geometry" />
        </mxCell>
        <mxCell id="wbrfr77zBKCYphScyeNv-5" value="Idade" style="ellipse;whiteSpace=wrap;html=1;" vertex="1" parent="1">
          <mxGeometry x="80" y="680" width="120" height="80" as="geometry" />
        </mxCell>
        <mxCell id="wbrfr77zBKCYphScyeNv-41" style="edgeStyle=orthogonalEdgeStyle;rounded=0;orthogonalLoop=1;jettySize=auto;html=1;entryX=0.5;entryY=0;entryDx=0;entryDy=0;endArrow=none;endFill=0;" edge="1" parent="1" source="wbrfr77zBKCYphScyeNv-6" target="wbrfr77zBKCYphScyeNv-9">
          <mxGeometry relative="1" as="geometry" />
        </mxCell>
        <mxCell id="wbrfr77zBKCYphScyeNv-6" value="Santo" style="rounded=0;whiteSpace=wrap;html=1;" vertex="1" parent="1">
          <mxGeometry x="640" y="320" width="120" height="80" as="geometry" />
        </mxCell>
        <mxCell id="wbrfr77zBKCYphScyeNv-7" value="Cor das vestes" style="ellipse;whiteSpace=wrap;html=1;" vertex="1" parent="1">
          <mxGeometry x="640" y="600" width="120" height="80" as="geometry" />
        </mxCell>
        <mxCell id="wbrfr77zBKCYphScyeNv-8" value="Data de beatificação" style="ellipse;whiteSpace=wrap;html=1;" vertex="1" parent="1">
          <mxGeometry x="640" y="680" width="120" height="80" as="geometry" />
        </mxCell>
        <mxCell id="wbrfr77zBKCYphScyeNv-9" value="Nome" style="ellipse;whiteSpace=wrap;html=1;" vertex="1" parent="1">
          <mxGeometry x="640" y="520" width="120" height="80" as="geometry" />
        </mxCell>
        <mxCell id="wbrfr77zBKCYphScyeNv-10" value="Nome" style="ellipse;whiteSpace=wrap;html=1;" vertex="1" parent="1">
          <mxGeometry x="360" y="520" width="120" height="80" as="geometry" />
        </mxCell>
        <mxCell id="wbrfr77zBKCYphScyeNv-11" value="Milagre?" style="ellipse;whiteSpace=wrap;html=1;" vertex="1" parent="1">
          <mxGeometry x="500" y="440" width="120" height="80" as="geometry" />
        </mxCell>
        <mxCell id="wbrfr77zBKCYphScyeNv-12" value="Estado civil" style="ellipse;whiteSpace=wrap;html=1;" vertex="1" parent="1">
          <mxGeometry x="360" y="600" width="120" height="80" as="geometry" />
        </mxCell>
        <mxCell id="wbrfr77zBKCYphScyeNv-56" style="edgeStyle=orthogonalEdgeStyle;rounded=0;orthogonalLoop=1;jettySize=auto;html=1;entryX=1;entryY=0;entryDx=0;entryDy=0;endArrow=none;endFill=0;" edge="1" parent="1" source="wbrfr77zBKCYphScyeNv-14" target="wbrfr77zBKCYphScyeNv-1">
          <mxGeometry relative="1" as="geometry" />
        </mxCell>
        <mxCell id="wbrfr77zBKCYphScyeNv-57" style="edgeStyle=orthogonalEdgeStyle;rounded=0;orthogonalLoop=1;jettySize=auto;html=1;exitX=0.5;exitY=1;exitDx=0;exitDy=0;entryX=0.5;entryY=0;entryDx=0;entryDy=0;endArrow=none;endFill=0;" edge="1" parent="1" source="wbrfr77zBKCYphScyeNv-14" target="wbrfr77zBKCYphScyeNv-2">
          <mxGeometry relative="1" as="geometry" />
        </mxCell>
        <mxCell id="wbrfr77zBKCYphScyeNv-58" style="edgeStyle=orthogonalEdgeStyle;rounded=0;orthogonalLoop=1;jettySize=auto;html=1;entryX=0.5;entryY=0;entryDx=0;entryDy=0;endArrow=none;endFill=0;" edge="1" parent="1" source="wbrfr77zBKCYphScyeNv-14" target="wbrfr77zBKCYphScyeNv-6">
          <mxGeometry relative="1" as="geometry" />
        </mxCell>
        <mxCell id="wbrfr77zBKCYphScyeNv-14" value="Deus" style="rounded=0;whiteSpace=wrap;html=1;" vertex="1" parent="1">
          <mxGeometry x="360" y="150" width="120" height="80" as="geometry" />
        </mxCell>
        <mxCell id="wbrfr77zBKCYphScyeNv-16" style="rounded=0;orthogonalLoop=1;jettySize=auto;html=1;entryX=1;entryY=0;entryDx=0;entryDy=0;endArrow=none;endFill=0;exitX=1;exitY=0.5;exitDx=0;exitDy=0;" edge="1" parent="1" source="wbrfr77zBKCYphScyeNv-15" target="wbrfr77zBKCYphScyeNv-1">
          <mxGeometry relative="1" as="geometry" />
        </mxCell>
        <mxCell id="wbrfr77zBKCYphScyeNv-38" value="N" style="edgeLabel;html=1;align=center;verticalAlign=middle;resizable=0;points=[];" connectable="0" vertex="1" parent="wbrfr77zBKCYphScyeNv-16">
          <mxGeometry x="0.0113" relative="1" as="geometry">
            <mxPoint as="offset" />
          </mxGeometry>
        </mxCell>
        <mxCell id="wbrfr77zBKCYphScyeNv-17" style="rounded=0;orthogonalLoop=1;jettySize=auto;html=1;endArrow=none;endFill=0;exitX=0;exitY=0;exitDx=0;exitDy=0;entryX=0;entryY=0.5;entryDx=0;entryDy=0;" edge="1" parent="1" source="wbrfr77zBKCYphScyeNv-1" target="wbrfr77zBKCYphScyeNv-15">
          <mxGeometry relative="1" as="geometry">
            <mxPoint x="100" y="220" as="sourcePoint" />
            <Array as="points" />
          </mxGeometry>
        </mxCell>
        <mxCell id="wbrfr77zBKCYphScyeNv-19" value="1" style="edgeLabel;html=1;align=center;verticalAlign=middle;resizable=0;points=[];" connectable="0" vertex="1" parent="wbrfr77zBKCYphScyeNv-17">
          <mxGeometry x="0.2067" y="-3" relative="1" as="geometry">
            <mxPoint x="-5" y="10" as="offset" />
          </mxGeometry>
        </mxCell>
        <mxCell id="wbrfr77zBKCYphScyeNv-15" value="Supervisiona" style="rhombus;whiteSpace=wrap;html=1;" vertex="1" parent="1">
          <mxGeometry x="100" y="200" width="80" height="80" as="geometry" />
        </mxCell>
        <mxCell id="wbrfr77zBKCYphScyeNv-23" style="edgeStyle=orthogonalEdgeStyle;rounded=0;orthogonalLoop=1;jettySize=auto;html=1;endArrow=none;endFill=0;entryX=0;entryY=0.75;entryDx=0;entryDy=0;" edge="1" parent="1" source="wbrfr77zBKCYphScyeNv-20" target="wbrfr77zBKCYphScyeNv-2">
          <mxGeometry relative="1" as="geometry" />
        </mxCell>
        <mxCell id="wbrfr77zBKCYphScyeNv-24" value="1" style="edgeLabel;html=1;align=center;verticalAlign=middle;resizable=0;points=[];" connectable="0" vertex="1" parent="wbrfr77zBKCYphScyeNv-23">
          <mxGeometry x="-0.14" y="1" relative="1" as="geometry">
            <mxPoint as="offset" />
          </mxGeometry>
        </mxCell>
        <mxCell id="wbrfr77zBKCYphScyeNv-20" value="Guarda" style="rhombus;whiteSpace=wrap;html=1;" vertex="1" parent="1">
          <mxGeometry x="240" y="370" width="80" height="80" as="geometry" />
        </mxCell>
        <mxCell id="wbrfr77zBKCYphScyeNv-27" value="" style="edgeStyle=orthogonalEdgeStyle;rounded=0;orthogonalLoop=1;jettySize=auto;html=1;endArrow=none;endFill=0;" edge="1" parent="1" source="wbrfr77zBKCYphScyeNv-2" target="wbrfr77zBKCYphScyeNv-26">
          <mxGeometry relative="1" as="geometry">
            <mxPoint x="480" y="360" as="sourcePoint" />
            <mxPoint x="640" y="360" as="targetPoint" />
          </mxGeometry>
        </mxCell>
        <mxCell id="wbrfr77zBKCYphScyeNv-29" value="N" style="edgeLabel;html=1;align=center;verticalAlign=middle;resizable=0;points=[];" connectable="0" vertex="1" parent="wbrfr77zBKCYphScyeNv-27">
          <mxGeometry x="-0.06" relative="1" as="geometry">
            <mxPoint as="offset" />
          </mxGeometry>
        </mxCell>
        <mxCell id="wbrfr77zBKCYphScyeNv-42" style="edgeStyle=orthogonalEdgeStyle;rounded=0;orthogonalLoop=1;jettySize=auto;html=1;entryX=0.5;entryY=0;entryDx=0;entryDy=0;endArrow=none;endFill=0;" edge="1" parent="1" source="wbrfr77zBKCYphScyeNv-26" target="wbrfr77zBKCYphScyeNv-11">
          <mxGeometry relative="1" as="geometry" />
        </mxCell>
        <mxCell id="wbrfr77zBKCYphScyeNv-26" value="Pedido" style="rhombus;whiteSpace=wrap;html=1;" vertex="1" parent="1">
          <mxGeometry x="520" y="320" width="80" height="80" as="geometry" />
        </mxCell>
        <mxCell id="wbrfr77zBKCYphScyeNv-50" style="edgeStyle=orthogonalEdgeStyle;rounded=0;orthogonalLoop=1;jettySize=auto;html=1;entryX=0;entryY=0.25;entryDx=0;entryDy=0;endArrow=none;endFill=0;" edge="1" parent="1" source="wbrfr77zBKCYphScyeNv-48" target="wbrfr77zBKCYphScyeNv-2">
          <mxGeometry relative="1" as="geometry" />
        </mxCell>
        <mxCell id="wbrfr77zBKCYphScyeNv-52" value="1" style="edgeLabel;html=1;align=center;verticalAlign=middle;resizable=0;points=[];" connectable="0" vertex="1" parent="wbrfr77zBKCYphScyeNv-50">
          <mxGeometry x="0.0381" relative="1" as="geometry">
            <mxPoint as="offset" />
          </mxGeometry>
        </mxCell>
        <mxCell id="wbrfr77zBKCYphScyeNv-48" value="Alocado" style="rhombus;whiteSpace=wrap;html=1;" vertex="1" parent="1">
          <mxGeometry x="240" y="270" width="80" height="80" as="geometry" />
        </mxCell>
        <mxCell id="wbrfr77zBKCYphScyeNv-53" value="Data de nascimento" style="ellipse;whiteSpace=wrap;html=1;" vertex="1" parent="1">
          <mxGeometry x="360" y="680" width="120" height="80" as="geometry" />
        </mxCell>
        <mxCell id="wbrfr77zBKCYphScyeNv-54" value="&lt;u&gt;Código&lt;/u&gt;" style="ellipse;whiteSpace=wrap;html=1;" vertex="1" parent="1">
          <mxGeometry x="360" y="70" width="120" height="80" as="geometry" />
        </mxCell>
        <mxCell id="WLVfXM_EKroSEXZRM-jR-4" value="Nome" style="ellipse;whiteSpace=wrap;html=1;" vertex="1" parent="1">
          <mxGeometry x="80" y="520" width="120" height="80" as="geometry" />
        </mxCell>
        <mxCell id="WLVfXM_EKroSEXZRM-jR-5" value="&lt;u&gt;ID Mortal&lt;/u&gt;" style="ellipse;whiteSpace=wrap;html=1;" vertex="1" parent="1">
          <mxGeometry x="360" y="440" width="120" height="80" as="geometry" />
        </mxCell>
        <mxCell id="WLVfXM_EKroSEXZRM-jR-7" value="&lt;u&gt;ID Santo&lt;/u&gt;" style="ellipse;whiteSpace=wrap;html=1;" vertex="1" parent="1">
          <mxGeometry x="640" y="440" width="120" height="80" as="geometry" />
        </mxCell>
      </root>
    </mxGraphModel>
  </diagram>
</mxfile>
